<?xml version="1.0" encoding="UTF-8"?>
<svg width="19px" height="19px" viewBox="0 0 19 19" version="1.1" xmlns="http://www.w3.org/2000/svg" xmlns:xlink="http://www.w3.org/1999/xlink">
    <title>iconmonstr-instagram-11</title>
    <g id="Main-Animation" stroke="none" stroke-width="1" fill="none" fill-rule="evenodd">
        <g id="iconmonstr-instagram-11" transform="translate(0.001263, 0.001263)" fill="#FFF" fill-rule="nonzero">
            <path d="M10.7578769,0.000204184556 C12.2288603,0.00438028234 12.5976092,0.018865619 13.4167071,0.0565914365 C16.8699439,0.214924165 18.7865616,2.13550016 18.9417276,5.58240367 C18.9487917,5.73830051 18.9550313,5.87785816 18.960533,6.01180894 L18.9682428,6.20987151 C18.987384,6.73397951 18.9954094,7.25423621 18.997854,8.45751018 L18.9985199,8.94209589 L18.9985195,10.0554449 L18.9985195,10.0554449 L18.9978511,10.5400677 C18.995395,11.7434685 18.9873119,12.2640596 18.9678825,12.7883405 L18.9600534,12.9864597 C18.9544645,13.1204422 18.9481219,13.2600186 18.940936,13.4159154 C18.7849782,16.8691522 16.8628189,18.7833949 13.4159154,18.9417276 C13.2600186,18.9487917 13.1204422,18.9550313 12.9864597,18.960533 L12.7883405,18.9682428 C12.2640596,18.987384 11.7434685,18.9954094 10.5400677,18.997854 L10.0554449,18.9985199 L8.94209553,18.9985199 L8.94209553,18.9985199 L8.45750729,18.997854 C6.80298973,18.9944927 6.43971449,18.9805801 5.581612,18.9417276 C2.12837519,18.7833949 0.214132501,16.8659856 0.0557997728,13.4159154 C0.0487356973,13.2600186 0.0424960761,13.1204422 0.0369944282,12.9864597 L0.029284626,12.7883405 C0.0127201432,12.3346359 0.00448011902,11.8836945 0.00097756994,10.9906109 L0.000204184556,8.23972709 C0.00438028234,6.76894234 0.018865619,6.40070984 0.0565914365,5.581612 C0.214924165,2.12837519 2.13233351,0.214132501 5.58240367,0.0557997728 C5.73830051,0.0487356973 5.87785816,0.0424960761 6.01180894,0.0369944282 L6.20987151,0.029284626 C6.66342651,0.0127201432 7.11409731,0.00448011902 8.00702855,0.00097756994 L10.7578769,0.000204184556 Z M9.49876371,4.62053234 C6.80473233,4.62053234 4.62053234,6.80473233 4.62053234,9.49876371 C4.62053234,12.1927951 6.80473233,14.3777867 9.49876371,14.3777867 C12.1927951,14.3777867 14.3769951,12.1935868 14.3769951,9.49876371 C14.3769951,6.80473233 12.1927951,4.62053234 9.49876371,4.62053234 Z M9.49876371,6.33210914 C11.2475487,6.33210914 12.6654183,7.74997872 12.6654183,9.49876371 C12.6654183,11.2483404 11.2475487,12.6654183 9.49876371,12.6654183 C7.74997872,12.6654183 6.33210914,11.2483404 6.33210914,9.49876371 C6.33210914,7.74997872 7.74997872,6.33210914 9.49876371,6.33210914 Z M14.570161,3.28816243 C13.9399967,3.28816243 13.4293737,3.79878548 13.4293737,4.42815807 C13.4293737,5.05753067 13.9399967,5.56815372 14.570161,5.56815372 C15.1995336,5.56815372 15.709365,5.05753067 15.709365,4.42815807 C15.709365,3.79878548 15.1995336,3.28816243 14.570161,3.28816243 Z" id="Combined-Shape"></path>
        </g>
    </g>
</svg>