<?xml version="1.0" encoding="UTF-8"?>
<svg width="26px" height="26px" viewBox="0 0 26 26" version="1.1" xmlns="http://www.w3.org/2000/svg" xmlns:xlink="http://www.w3.org/1999/xlink">
    <title>icon-discord</title>
    <g id="icon-discord" stroke="none" stroke-width="1" fill="none" fill-rule="evenodd">
        <path d="M20.4704713,6.40920724 C19.0045291,5.75694649 17.4325277,5.27638951 15.7889024,5.00115457 C15.75897,4.99584263 15.72907,5.00911747 15.7136503,5.03566779 C15.5114771,5.3843562 15.2875348,5.8392487 15.1307137,6.19679214 C13.3628884,5.94014745 11.6041335,5.94014745 9.8725575,6.19679214 C9.71570398,5.8313012 9.48363075,5.3843562 9.28055047,5.03566779 C9.26513075,5.01000332 9.23523075,4.99672847 9.20529836,5.00115457 C7.56258009,5.27550995 5.99057872,5.75606692 4.52372946,6.40920724 C4.51103087,6.41451605 4.50014636,6.42337453 4.49292242,6.43487171 C1.51116685,10.7546071 0.694339366,14.9681663 1.09504762,19.1294856 C1.09686074,19.1498413 1.10864613,19.1693174 1.12496479,19.1816941 C3.09224189,20.5826537 4.99788578,21.4331623 6.86814208,21.9969011 C6.89807447,22.0057596 6.92978856,21.9951419 6.94883644,21.9712366 C7.39124629,21.3853831 7.7856153,20.7676453 8.12374768,20.1180232 C8.14370261,20.079982 8.12465472,20.0348414 8.08387022,20.0197946 C7.45833502,19.7896939 6.86269982,19.5091439 6.28974068,19.1905526 C6.24442097,19.1648882 6.2407928,19.1020306 6.28248435,19.0719369 C6.40305617,18.9843259 6.5236604,18.8931652 6.63878997,18.8011249 C6.65961955,18.784319 6.6886449,18.7807693 6.71313504,18.7913869 C10.4772307,20.4578811 14.5523123,20.4578811 18.2719953,18.7913869 C18.2964855,18.7798897 18.3255108,18.7834394 18.3472474,18.8002454 C18.4624094,18.8922856 18.5829812,18.9843259 18.7044601,19.0719369 C18.7461517,19.1020306 18.7434305,19.1648882 18.6981108,19.1905526 C18.1251517,19.5153322 17.5295165,19.7896939 16.9030742,20.018915 C16.8622897,20.0339618 16.8441489,20.079982 16.8641038,20.1180232 C17.2094925,20.7667343 17.6038615,21.3844721 18.038108,21.970357 C18.0562489,21.9951419 18.08887,22.0057596 18.1188024,21.9969011 C19.9981291,21.4331623 21.90376,20.5826537 23.8710374,19.1816941 C23.8882712,19.1693174 23.8991558,19.1507209 23.9009698,19.1303652 C24.380536,14.3194238 23.0977192,10.140419 20.5003713,6.43575128 C20.494022,6.42337453 20.4831699,6.41451605 20.4704713,6.40920724 Z M8.68585471,16.5956769 C7.55260262,16.5956769 6.61883504,15.5867837 6.61883504,14.3477584 C6.61883504,13.1087331 7.53449417,12.0998399 8.68585471,12.0998399 C9.84625327,12.0998399 10.7709828,13.1175916 10.752842,14.3477584 C10.752842,15.5867837 9.83718285,16.5956769 8.68585471,16.5956769 Z M16.328301,16.5956769 C15.1950813,16.5956769 14.2613137,15.5867837 14.2613137,14.3477584 C14.2613137,13.1087331 15.1769405,12.0998399 16.328301,12.0998399 C17.488732,12.0998399 18.4134291,13.1175916 18.3953207,14.3477584 C18.3953207,15.5867837 17.488732,16.5956769 16.328301,16.5956769 Z" id="Shape" fill="#FFF" fill-rule="nonzero"></path>
    </g>
</svg>