<?xml version="1.0" encoding="UTF-8"?>
<svg width="26px" height="26px" viewBox="0 0 26 26" version="1.1" xmlns="http://www.w3.org/2000/svg" xmlns:xlink="http://www.w3.org/1999/xlink">
    <title>icon-opensea</title>
    <g id="icon-opensea" stroke="none" stroke-width="1" fill="none" fill-rule="evenodd">
        <g id="Logomark-White" transform="translate(2.000000, 3.000000)" fill="#400000" fill-rule="nonzero">
            <path d="M2.02454701,10.7783043 L2.09863397,10.6683216 L6.56686767,4.06683637 C6.63217565,3.97015542 6.78569329,3.98017678 6.83512277,4.0851488 C7.58156509,5.66513623 8.22571322,7.63008112 7.92394532,8.85337277 C7.79512333,9.35667609 7.44217016,10.0383453 7.04509307,10.6683216 C6.99394597,10.7599919 6.93745514,10.8500039 6.87745272,10.9366635 C6.84924547,10.9766408 6.80157179,11 6.75038652,11 L2.1551248,11 C2.03157019,11 1.95923903,10.873327 2.02454701,10.7783043 Z" id="Path"></path>
            <path d="M22,12.1441781 L22,13.2472222 C22,13.3105403 21.959672,13.3668569 21.9009841,13.3914764 C21.5416799,13.5392694 20.311496,14.0811263 19.8,14.7636986 C18.494672,16.5071157 17.497336,19 15.2679921,19 L5.96748017,19 C2.67116799,19 0,16.427968 0,13.2542618 L0,13.152207 C0,13.0677702 0.0714960346,12.9991629 0.159488104,12.9991629 L5.34416006,12.9991629 C5.44682408,12.9991629 5.52200793,13.0906393 5.51284787,13.1874049 C5.47616799,13.5111111 5.53850397,13.8418569 5.69799207,14.1426941 C6.00598414,14.7425799 6.64401586,15.1173135 7.33332012,15.1173135 L9.9,15.1173135 L9.9,13.1944444 L7.36266402,13.1944444 C7.23248017,13.1944444 7.1555119,13.0501903 7.23065609,12.9481355 C7.25817592,12.9076865 7.28934391,12.865449 7.32233598,12.8179604 C7.56248017,12.4907534 7.90532805,11.9823059 8.24631218,11.4035008 C8.47916006,11.0129756 8.70467195,10.5960046 8.88616799,10.1773212 C8.92284787,10.1016743 8.95215213,10.024277 8.98149603,9.94859209 C9.03098414,9.81491629 9.08233598,9.68999239 9.11897621,9.56510654 C9.15565609,9.45955099 9.185,9.34870624 9.21434391,9.24490107 C9.3005119,8.88953577 9.33715213,8.51305175 9.33715213,8.12248858 C9.33715213,7.96944444 9.32981615,7.80936073 9.3151442,7.65627854 C9.30784787,7.48915525 9.28583994,7.32203196 9.26383201,7.15490868 C9.24916006,7.00711568 9.22167988,6.86111111 9.19233598,6.70806697 C9.15565609,6.48462709 9.10434391,6.26297565 9.04565609,6.03953577 L9.0255119,5.95509893 C8.98149603,5.80205479 8.94481615,5.65601218 8.89350397,5.50296804 C8.74864816,5.02267884 8.58182408,4.55471842 8.40583994,4.11666667 C8.34167988,3.94250381 8.26832012,3.77538052 8.195,3.60825723 C8.08682408,3.35665906 7.97682408,3.12796804 7.87598414,2.91156773 C7.82467195,2.81305175 7.78065609,2.72332572 7.73667988,2.63184932 C7.68715213,2.52804414 7.63583994,2.42427702 7.5844881,2.32572298 C7.54784787,2.2500761 7.50565609,2.17971842 7.47631218,2.10936073 L7.16284787,1.55342466 C7.11883201,1.47777778 7.19215213,1.38805175 7.27832012,1.41092085 L9.24,1.92111872 L9.2455119,1.92111872 C9.24916006,1.92111872 9.25098414,1.9228691 9.25284787,1.9228691 L9.51131218,1.99147641 L9.7955119,2.06887367 L9.9,2.09703196 L9.9,0.978158295 C9.9,0.43805175 10.3509841,0 10.9083201,0 C11.1870079,0 11.44,0.109056317 11.621496,0.286757991 C11.8029921,0.464459665 11.9166799,0.707229833 11.9166799,0.978158295 L11.9166799,2.63888889 L12.1256561,2.69516743 C12.1421521,2.70045662 12.1586482,2.70749619 12.1733201,2.71803653 C12.224672,2.75498478 12.2979921,2.80955099 12.391496,2.87636986 C12.4648161,2.93268645 12.5436482,3.00129376 12.6390159,3.07165145 C12.8278479,3.21769406 13.0533201,3.40593607 13.3008399,3.62229833 C13.3668241,3.67686454 13.4309841,3.73314307 13.489672,3.78945967 C13.8086482,4.07442922 14.166168,4.40871385 14.5071521,4.7781583 C14.6024802,4.88192542 14.6959841,4.98748097 14.7913122,5.09832572 C14.8866799,5.21092085 14.9874802,5.3217656 15.0755119,5.43261035 C15.1909841,5.5803653 15.3156561,5.73340944 15.423832,5.8935312 C15.4751442,5.96917808 15.533832,6.04657534 15.5833201,6.12222222 C15.722664,6.32454338 15.8455119,6.53390411 15.9628479,6.74322679 C16.012336,6.83999239 16.0636482,6.94554795 16.107664,7.04935312 C16.2378082,7.32907154 16.3405119,7.61407915 16.406496,7.89908676 C16.4266799,7.96065449 16.4413122,8.02751142 16.4486482,8.08732877 L16.4486482,8.10136986 C16.4706561,8.18584475 16.4779921,8.27557078 16.485328,8.36704718 C16.514672,8.65905632 16.5,8.9511035 16.4339762,9.24490107 C16.406496,9.36982496 16.3698161,9.48767123 16.3258399,9.61259513 C16.2818241,9.73222983 16.2378082,9.85711568 16.1809841,9.975 C16.0709841,10.2195205 15.9408399,10.4640791 15.7868241,10.6927702 C15.737336,10.777207 15.6786482,10.866933 15.62,10.9513699 C15.5558399,11.0410959 15.4898161,11.1255708 15.431168,11.2082572 C15.3505119,11.3138128 15.2643439,11.4246195 15.1763122,11.5231355 C15.0974802,11.6269406 15.0168241,11.7307458 14.928832,11.8222222 C14.8059841,11.9611872 14.6886482,12.0931507 14.5658399,12.219825 C14.4924802,12.3025114 14.4136482,12.3869482 14.3329921,12.4625951 C14.2541601,12.547032 14.173504,12.6226788 14.1001442,12.6930365 C13.977336,12.8109209 13.874672,12.9023973 13.788504,12.9780441 L13.5868241,13.1557458 C13.5574802,13.1803653 13.5189762,13.1944444 13.4786482,13.1944444 L11.9166799,13.1944444 L11.9166799,15.1173135 L13.8820079,15.1173135 C14.3220079,15.1173135 14.74,14.9677702 15.077336,14.6933409 C15.1928082,14.5965753 15.6970079,14.1778539 16.2928479,13.546309 C16.3129921,13.5251903 16.3386482,13.5093607 16.3679921,13.5023212 L21.796496,11.9963851 C21.897336,11.9682268 22,12.0421233 22,12.1441781 Z" id="Path"></path>
        </g>
    </g>
</svg>