<?xml version="1.0" encoding="UTF-8"?>
<svg width="40px" height="40px" viewBox="0 0 40 40" version="1.1" xmlns="http://www.w3.org/2000/svg" xmlns:xlink="http://www.w3.org/1999/xlink">
    <title>icon-sound-off</title>
    <g id="icon-sound-off" stroke="none" stroke-width="1" fill="none" fill-rule="evenodd">
        <polygon id="Rectangle" fill="#121212" points="8 15 11 15 15 19 18 25 8 25"></polygon>
        <polygon id="Rectangle" fill="#121212" transform="translate(20.843146, 20.156854) rotate(-45.000000) translate(-20.843146, -20.156854) " points="12.9540585 12.267767 17.5294373 12.3786797 17.5294373 23.6923882 19.6507576 21.5710678 20.3578644 12.3786797 28.732233 12.4895924 13.1758839 28.0459415"></polygon>
        <path d="M23,30.1568542 C24.1043851,30.1568542 25.1669564,29.9778279 26.160276,29.6472132 M28.4981474,28.5110533 C31.2102973,26.7224982 33,23.64868 33,20.1568542 C33,14.6340068 28.5228475,10.1568542 23,10.1568542" id="Shape" stroke="#121212" stroke-width="2"></path>
        <path d="M26.2109008,22.5426666 C26.706632,21.8765856 27,21.0509798 27,20.1568542 C27,17.9477153 25.209139,16.1568542 23,16.1568542" id="Path" stroke="#121212" stroke-width="2"></path>
        <line x1="10" y1="10" x2="31" y2="31" id="Path-110" stroke="#121212" stroke-width="2"></line>
    </g>
</svg>