<?xml version="1.0" encoding="UTF-8"?>
<svg width="21px" height="21px" viewBox="0 0 21 21" version="1.1" xmlns="http://www.w3.org/2000/svg" xmlns:xlink="http://www.w3.org/1999/xlink">
    <title>Group</title>
    <g id="Team-Avatars" stroke="none" stroke-width="1" fill="none" fill-rule="evenodd">
        <g id="body/1" transform="translate(-501.000000, -502.000000)" fill="#1D9BF0" fill-rule="nonzero">
            <g id="Group" transform="translate(501.000000, 502.000000)">
                <path d="M21.001,11 C21.001,9.42 20.126,8.05 18.853,7.4 C19.007,6.965 19.091,6.495 19.091,6 C19.091,3.79 17.381,2.002 15.273,2.002 C14.803,2.002 14.353,2.086 13.937,2.252 C13.319,0.915 12.011,0 10.501,0 C8.991,0 7.685,0.917 7.064,2.25 C6.649,2.085 6.198,2 5.728,2 C3.618,2 1.91,3.79 1.91,6 C1.91,6.494 1.993,6.964 2.147,7.4 C0.875,8.05 0,9.418 0,11 C0,12.495 0.782,13.798 1.942,14.486 C1.922,14.656 1.91,14.826 1.91,15 C1.91,17.21 3.618,19 5.728,19 C6.198,19 6.648,18.914 7.063,18.75 C7.683,20.084 8.989,21 10.5,21 C12.012,21 13.318,20.084 13.937,18.75 C14.352,18.913 14.802,18.998 15.273,18.998 C17.383,18.998 19.091,17.208 19.091,14.998 C19.091,14.824 19.079,14.654 19.058,14.485 C20.216,13.798 21.001,12.495 21.001,11.001 L21.001,11 Z M14.385,7.666 L10.051,14.166 C9.906,14.383 9.669,14.5 9.426,14.5 C9.283,14.5 9.138,14.46 9.01,14.374 L8.895,14.28 L6.48,11.865 C6.187,11.572 6.187,11.097 6.48,10.805 C6.773,10.513 7.248,10.511 7.54,10.805 L9.31,12.572 L13.135,6.832 C13.365,6.487 13.831,6.396 14.175,6.625 C14.521,6.855 14.615,7.321 14.385,7.665 L14.385,7.666 Z" id="Shape"></path>
            </g>
        </g>
    </g>
</svg>